<?xml version="1.0" encoding="utf-8" standalone="no"?>
<!DOCTYPE svg PUBLIC "-//W3C//DTD SVG 1.1//EN"
  "http://www.w3.org/Graphics/SVG/1.1/DTD/svg11.dtd">
<svg xmlns:xlink="http://www.w3.org/1999/xlink" width="499.4pt" height="208.808pt" viewBox="0 0 499.4 208.808" xmlns="http://www.w3.org/2000/svg" version="1.1">
 <metadata>
  <rdf:RDF xmlns:dc="http://purl.org/dc/elements/1.1/" xmlns:cc="http://creativecommons.org/ns#" xmlns:rdf="http://www.w3.org/1999/02/22-rdf-syntax-ns#">
   <cc:Work>
    <dc:type rdf:resource="http://purl.org/dc/dcmitype/StillImage"/>
    <dc:date>2026-08-22T15:59:46.823750</dc:date>
    <dc:format>image/svg+xml</dc:format>
    <dc:creator>
     <cc:Agent>
      <dc:title>Matplotlib v3.11.1, https://matplotlib.org/</dc:title>
     </cc:Agent>
    </dc:creator>
   </cc:Work>
  </rdf:RDF>
 </metadata>
 <defs>
  <style type="text/css">*{stroke-linejoin: round; stroke-linecap: butt}</style>
 </defs>
 <g id="figure_1">
  <g id="patch_1">
   <path d="M 0 208.808 
L 499.4 208.808 
L 499.4 0 
L 0 0 
z
" style="fill: #ffffff"/>
  </g>
  <g id="axes_1">
   <g id="patch_2">
    <path d="M 45.8 184.608 
L 492.2 184.608 
L 492.2 7.2 
L 45.8 7.2 
z
" style="fill: #ffffff"/>
   </g>
   <g id="patch_3">
    <path d="M 66.090909 88458.634662 
L 77.285893 88458.634662 
L 77.285893 174.524953 
L 66.090909 174.524953 
z
" clip-path="url(#p0509bbf4de)" style="fill: #888888"/>
   </g>
   <g id="patch_4">
    <path d="M 136.059561 88458.634662 
L 147.254545 88458.634662 
L 147.254545 120.079888 
L 136.059561 120.079888 
z
" clip-path="url(#p0509bbf4de)" style="fill: #888888"/>
   </g>
   <g id="patch_5">
    <path d="M 206.028213 88458.634662 
L 217.223197 88458.634662 
L 217.223197 69.618082 
L 206.028213 69.618082 
z
" clip-path="url(#p0509bbf4de)" style="fill: #888888"/>
   </g>
   <g id="patch_6">
    <path d="M 275.996865 88458.634662 
L 287.19185 88458.634662 
L 287.19185 69.163763 
L 275.996865 69.163763 
z
" clip-path="url(#p0509bbf4de)" style="fill: #888888"/>
   </g>
   <g id="patch_7">
    <path d="M 345.965517 88458.634662 
L 357.160502 88458.634662 
L 357.160502 17.011868 
L 345.965517 17.011868 
z
" clip-path="url(#p0509bbf4de)" style="fill: #888888"/>
   </g>
   <g id="patch_8">
    <path d="M 415.934169 88458.634662 
L 427.129154 88458.634662 
L 427.129154 151.704727 
L 415.934169 151.704727 
z
" clip-path="url(#p0509bbf4de)" style="fill: #888888"/>
   </g>
   <g id="patch_9">
    <path d="M 77.285893 88458.634662 
L 88.480878 88458.634662 
L 88.480878 174.524953 
L 77.285893 174.524953 
z
" clip-path="url(#p0509bbf4de)" style="fill: #7f9fc4"/>
   </g>
   <g id="patch_10">
    <path d="M 147.254545 88458.634662 
L 158.44953 88458.634662 
L 158.44953 123.395613 
L 147.254545 123.395613 
z
" clip-path="url(#p0509bbf4de)" style="fill: #7f9fc4"/>
   </g>
   <g id="patch_11">
    <path d="M 217.223197 88458.634662 
L 228.418182 88458.634662 
L 228.418182 70.364204 
L 217.223197 70.364204 
z
" clip-path="url(#p0509bbf4de)" style="fill: #7f9fc4"/>
   </g>
   <g id="patch_12">
    <path d="M 287.19185 88458.634662 
L 298.386834 88458.634662 
L 298.386834 70.323796 
L 287.19185 70.323796 
z
" clip-path="url(#p0509bbf4de)" style="fill: #7f9fc4"/>
   </g>
   <g id="patch_13">
    <path d="M 357.160502 88458.634662 
L 368.355486 88458.634662 
L 368.355486 17.292856 
L 357.160502 17.292856 
z
" clip-path="url(#p0509bbf4de)" style="fill: #7f9fc4"/>
   </g>
   <g id="patch_14">
    <path d="M 427.129154 88458.634662 
L 438.324138 88458.634662 
L 438.324138 151.700254 
L 427.129154 151.700254 
z
" clip-path="url(#p0509bbf4de)" style="fill: #7f9fc4"/>
   </g>
   <g id="patch_15">
    <path d="M 88.480878 88458.634662 
L 99.675862 88458.634662 
L 99.675862 162.223159 
L 88.480878 162.223159 
z
" clip-path="url(#p0509bbf4de)" style="fill: #c4a97f"/>
   </g>
   <g id="patch_16">
    <path d="M 158.44953 88458.634662 
L 169.644514 88458.634662 
L 169.644514 122.788489 
L 158.44953 122.788489 
z
" clip-path="url(#p0509bbf4de)" style="fill: #c4a97f"/>
   </g>
   <g id="patch_17">
    <path d="M 228.418182 88458.634662 
L 239.613166 88458.634662 
L 239.613166 69.952557 
L 228.418182 69.952557 
z
" clip-path="url(#p0509bbf4de)" style="fill: #c4a97f"/>
   </g>
   <g id="patch_18">
    <path d="M 298.386834 88458.634662 
L 309.581818 88458.634662 
L 309.581818 69.929916 
L 298.386834 69.929916 
z
" clip-path="url(#p0509bbf4de)" style="fill: #c4a97f"/>
   </g>
   <g id="patch_19">
    <path d="M 368.355486 88458.634662 
L 379.55047 88458.634662 
L 379.55047 16.907236 
L 368.355486 16.907236 
z
" clip-path="url(#p0509bbf4de)" style="fill: #c4a97f"/>
   </g>
   <g id="patch_20">
    <path d="M 438.324138 88458.634662 
L 449.519122 88458.634662 
L 449.519122 144.643273 
L 438.324138 144.643273 
z
" clip-path="url(#p0509bbf4de)" style="fill: #c4a97f"/>
   </g>
   <g id="patch_21">
    <path d="M 99.675862 88458.634662 
L 110.870846 88458.634662 
L 110.870846 171.051869 
L 99.675862 171.051869 
z
" clip-path="url(#p0509bbf4de)" style="fill: #a97fc4"/>
   </g>
   <g id="patch_22">
    <path d="M 169.644514 88458.634662 
L 180.839498 88458.634662 
L 180.839498 121.160367 
L 169.644514 121.160367 
z
" clip-path="url(#p0509bbf4de)" style="fill: #a97fc4"/>
   </g>
   <g id="patch_23">
    <path d="M 239.613166 88458.634662 
L 250.80815 88458.634662 
L 250.80815 68.356563 
L 239.613166 68.356563 
z
" clip-path="url(#p0509bbf4de)" style="fill: #a97fc4"/>
   </g>
   <g id="patch_24">
    <path d="M 309.581818 88458.634662 
L 320.776803 88458.634662 
L 320.776803 68.347672 
L 309.581818 68.347672 
z
" clip-path="url(#p0509bbf4de)" style="fill: #a97fc4"/>
   </g>
   <g id="patch_25">
    <path d="M 379.55047 88458.634662 
L 390.745455 88458.634662 
L 390.745455 15.264 
L 379.55047 15.264 
z
" clip-path="url(#p0509bbf4de)" style="fill: #a97fc4"/>
   </g>
   <g id="patch_26">
    <path d="M 449.519122 88458.634662 
L 460.714107 88458.634662 
L 460.714107 149.149763 
L 449.519122 149.149763 
z
" clip-path="url(#p0509bbf4de)" style="fill: #a97fc4"/>
   </g>
   <g id="patch_27">
    <path d="M 110.870846 88458.634662 
L 122.065831 88458.634662 
L 122.065831 176.544 
L 110.870846 176.544 
z
" clip-path="url(#p0509bbf4de)" style="fill: #c0392b"/>
   </g>
   <g id="patch_28">
    <path d="M 180.839498 88458.634662 
L 192.034483 88458.634662 
L 192.034483 123.652905 
L 180.839498 123.652905 
z
" clip-path="url(#p0509bbf4de)" style="fill: #c0392b"/>
   </g>
   <g id="patch_29">
    <path d="M 250.80815 88458.634662 
L 262.003135 88458.634662 
L 262.003135 70.637067 
L 250.80815 70.637067 
z
" clip-path="url(#p0509bbf4de)" style="fill: #c0392b"/>
   </g>
   <g id="patch_30">
    <path d="M 320.776803 88458.634662 
L 331.971787 88458.634662 
L 331.971787 70.634775 
L 320.776803 70.634775 
z
" clip-path="url(#p0509bbf4de)" style="fill: #c0392b"/>
   </g>
   <g id="patch_31">
    <path d="M 390.745455 88458.634662 
L 401.940439 88458.634662 
L 401.940439 17.53241 
L 390.745455 17.53241 
z
" clip-path="url(#p0509bbf4de)" style="fill: #c0392b"/>
   </g>
   <g id="patch_32">
    <path d="M 460.714107 88458.634662 
L 471.909091 88458.634662 
L 471.909091 151.636011 
L 460.714107 151.636011 
z
" clip-path="url(#p0509bbf4de)" style="fill: #c0392b"/>
   </g>
   <g id="matplotlib.axis_1">
    <g id="xtick_1">
     <g id="line2d_1">
      <defs>
       <path id="m6b9b89df40" d="M 0 0 
L 0 3.5 
" style="stroke: #000000; stroke-width: 0.8"/>
      </defs>
      <g>
       <use xlink:href="#m6b9b89df40" x="94.07837" y="184.608" style="stroke: #000000; stroke-width: 0.8"/>
      </g>
     </g>
     <g id="text_1">
      <!-- S1 -->
      <g transform="translate(87.722901 199.205656) scale(0.1 -0.1)">
       <defs>
        <path id="DejaVuSans-36" d="M 3425 4513 
L 3425 3897 
Q 3066 4069 2747 4153 
Q 2428 4238 2131 4238 
Q 1616 4238 1336 4038 
Q 1056 3838 1056 3469 
Q 1056 3159 1242 3001 
Q 1428 2844 1947 2747 
L 2328 2669 
Q 3034 2534 3370 2195 
Q 3706 1856 3706 1288 
Q 3706 609 3251 259 
Q 2797 -91 1919 -91 
Q 1588 -91 1214 -16 
Q 841 59 441 206 
L 441 856 
Q 825 641 1194 531 
Q 1563 422 1919 422 
Q 2459 422 2753 634 
Q 3047 847 3047 1241 
Q 3047 1584 2836 1778 
Q 2625 1972 2144 2069 
L 1759 2144 
Q 1053 2284 737 2584 
Q 422 2884 422 3419 
Q 422 4038 858 4394 
Q 1294 4750 2059 4750 
Q 2388 4750 2728 4690 
Q 3069 4631 3425 4513 
z
" transform="scale(0.015625)"/>
        <path id="DejaVuSans-14" d="M 794 531 
L 1825 531 
L 1825 4091 
L 703 3866 
L 703 4441 
L 1819 4666 
L 2450 4666 
L 2450 531 
L 3481 531 
L 3481 0 
L 794 0 
L 794 531 
z
" transform="scale(0.015625)"/>
       </defs>
       <use xlink:href="#DejaVuSans-36"/>
       <use xlink:href="#DejaVuSans-14" transform="translate(63.484375 0)"/>
      </g>
     </g>
    </g>
    <g id="xtick_2">
     <g id="line2d_2">
      <g>
       <use xlink:href="#m6b9b89df40" x="164.047022" y="184.608" style="stroke: #000000; stroke-width: 0.8"/>
      </g>
     </g>
     <g id="text_2">
      <!-- S2 -->
      <g transform="translate(157.691553 199.205656) scale(0.1 -0.1)">
       <defs>
        <path id="DejaVuSans-15" d="M 1228 531 
L 3431 531 
L 3431 0 
L 469 0 
L 469 531 
Q 828 903 1448 1529 
Q 2069 2156 2228 2338 
Q 2531 2678 2651 2914 
Q 2772 3150 2772 3378 
Q 2772 3750 2511 3984 
Q 2250 4219 1831 4219 
Q 1534 4219 1204 4116 
Q 875 4013 500 3803 
L 500 4441 
Q 881 4594 1212 4672 
Q 1544 4750 1819 4750 
Q 2544 4750 2975 4387 
Q 3406 4025 3406 3419 
Q 3406 3131 3298 2873 
Q 3191 2616 2906 2266 
Q 2828 2175 2409 1742 
Q 1991 1309 1228 531 
z
" transform="scale(0.015625)"/>
       </defs>
       <use xlink:href="#DejaVuSans-36"/>
       <use xlink:href="#DejaVuSans-15" transform="translate(63.484375 0)"/>
      </g>
     </g>
    </g>
    <g id="xtick_3">
     <g id="line2d_3">
      <g>
       <use xlink:href="#m6b9b89df40" x="234.015674" y="184.608" style="stroke: #000000; stroke-width: 0.8"/>
      </g>
     </g>
     <g id="text_3">
      <!-- S3 -->
      <g transform="translate(227.660205 199.205656) scale(0.1 -0.1)">
       <defs>
        <path id="DejaVuSans-16" d="M 2597 2516 
Q 3050 2419 3304 2112 
Q 3559 1806 3559 1356 
Q 3559 666 3084 287 
Q 2609 -91 1734 -91 
Q 1441 -91 1130 -33 
Q 819 25 488 141 
L 488 750 
Q 750 597 1062 519 
Q 1375 441 1716 441 
Q 2309 441 2620 675 
Q 2931 909 2931 1356 
Q 2931 1769 2642 2001 
Q 2353 2234 1838 2234 
L 1294 2234 
L 1294 2753 
L 1863 2753 
Q 2328 2753 2575 2939 
Q 2822 3125 2822 3475 
Q 2822 3834 2567 4026 
Q 2313 4219 1838 4219 
Q 1578 4219 1281 4162 
Q 984 4106 628 3988 
L 628 4550 
Q 988 4650 1302 4700 
Q 1616 4750 1894 4750 
Q 2613 4750 3031 4423 
Q 3450 4097 3450 3541 
Q 3450 3153 3228 2886 
Q 3006 2619 2597 2516 
z
" transform="scale(0.015625)"/>
       </defs>
       <use xlink:href="#DejaVuSans-36"/>
       <use xlink:href="#DejaVuSans-16" transform="translate(63.484375 0)"/>
      </g>
     </g>
    </g>
    <g id="xtick_4">
     <g id="line2d_4">
      <g>
       <use xlink:href="#m6b9b89df40" x="303.984326" y="184.608" style="stroke: #000000; stroke-width: 0.8"/>
      </g>
     </g>
     <g id="text_4">
      <!-- S4 -->
      <g transform="translate(297.628857 199.205656) scale(0.1 -0.1)">
       <defs>
        <path id="DejaVuSans-17" d="M 2419 4116 
L 825 1625 
L 2419 1625 
L 2419 4116 
z
M 2253 4666 
L 3047 4666 
L 3047 1625 
L 3713 1625 
L 3713 1100 
L 3047 1100 
L 3047 0 
L 2419 0 
L 2419 1100 
L 313 1100 
L 313 1709 
L 2253 4666 
z
" transform="scale(0.015625)"/>
       </defs>
       <use xlink:href="#DejaVuSans-36"/>
       <use xlink:href="#DejaVuSans-17" transform="translate(63.484375 0)"/>
      </g>
     </g>
    </g>
    <g id="xtick_5">
     <g id="line2d_5">
      <g>
       <use xlink:href="#m6b9b89df40" x="373.952978" y="184.608" style="stroke: #000000; stroke-width: 0.8"/>
      </g>
     </g>
     <g id="text_5">
      <!-- S5 -->
      <g transform="translate(367.597509 199.205656) scale(0.1 -0.1)">
       <defs>
        <path id="DejaVuSans-18" d="M 691 4666 
L 3169 4666 
L 3169 4134 
L 1269 4134 
L 1269 2991 
Q 1406 3038 1543 3061 
Q 1681 3084 1819 3084 
Q 2600 3084 3056 2656 
Q 3513 2228 3513 1497 
Q 3513 744 3044 326 
Q 2575 -91 1722 -91 
Q 1428 -91 1123 -41 
Q 819 9 494 109 
L 494 744 
Q 775 591 1075 516 
Q 1375 441 1709 441 
Q 2250 441 2565 725 
Q 2881 1009 2881 1497 
Q 2881 1984 2565 2268 
Q 2250 2553 1709 2553 
Q 1456 2553 1204 2497 
Q 953 2441 691 2322 
L 691 4666 
z
" transform="scale(0.015625)"/>
       </defs>
       <use xlink:href="#DejaVuSans-36"/>
       <use xlink:href="#DejaVuSans-18" transform="translate(63.484375 0)"/>
      </g>
     </g>
    </g>
    <g id="xtick_6">
     <g id="line2d_6">
      <g>
       <use xlink:href="#m6b9b89df40" x="443.92163" y="184.608" style="stroke: #000000; stroke-width: 0.8"/>
      </g>
     </g>
     <g id="text_6">
      <!-- S6 -->
      <g transform="translate(437.566161 199.205656) scale(0.1 -0.1)">
       <defs>
        <path id="DejaVuSans-19" d="M 2113 2584 
Q 1688 2584 1439 2293 
Q 1191 2003 1191 1497 
Q 1191 994 1439 701 
Q 1688 409 2113 409 
Q 2538 409 2786 701 
Q 3034 994 3034 1497 
Q 3034 2003 2786 2293 
Q 2538 2584 2113 2584 
z
M 3366 4563 
L 3366 3988 
Q 3128 4100 2886 4159 
Q 2644 4219 2406 4219 
Q 1781 4219 1451 3797 
Q 1122 3375 1075 2522 
Q 1259 2794 1537 2939 
Q 1816 3084 2150 3084 
Q 2853 3084 3261 2657 
Q 3669 2231 3669 1497 
Q 3669 778 3244 343 
Q 2819 -91 2113 -91 
Q 1303 -91 875 529 
Q 447 1150 447 2328 
Q 447 3434 972 4092 
Q 1497 4750 2381 4750 
Q 2619 4750 2861 4703 
Q 3103 4656 3366 4563 
z
" transform="scale(0.015625)"/>
       </defs>
       <use xlink:href="#DejaVuSans-36"/>
       <use xlink:href="#DejaVuSans-19" transform="translate(63.484375 0)"/>
      </g>
     </g>
    </g>
   </g>
   <g id="matplotlib.axis_2">
    <g id="ytick_1">
     <g id="line2d_7">
      <path d="M 45.8 137.223403 
L 492.2 137.223403 
" clip-path="url(#p0509bbf4de)" style="fill: none; stroke: #b0b0b0; stroke-opacity: 0.3; stroke-width: 0.8; stroke-linecap: square"/>
     </g>
     <g id="line2d_8">
      <defs>
       <path id="m93d8a0c014" d="M 0 0 
L -3.5 0 
" style="stroke: #000000; stroke-width: 0.8"/>
      </defs>
      <g>
       <use xlink:href="#m93d8a0c014" x="45.8" y="137.223403" style="stroke: #000000; stroke-width: 0.8"/>
      </g>
     </g>
     <g id="text_7">
      <!-- $\mathdefault{10^{1}}$ -->
      <g transform="translate(21.2 141.873403) scale(0.1 -0.1)">
       <defs>
        <path id="DejaVuSans-13" d="M 2034 4250 
Q 1547 4250 1301 3770 
Q 1056 3291 1056 2328 
Q 1056 1369 1301 889 
Q 1547 409 2034 409 
Q 2525 409 2770 889 
Q 3016 1369 3016 2328 
Q 3016 3291 2770 3770 
Q 2525 4250 2034 4250 
z
M 2034 4750 
Q 2819 4750 3233 4129 
Q 3647 3509 3647 2328 
Q 3647 1150 3233 529 
Q 2819 -91 2034 -91 
Q 1250 -91 836 529 
Q 422 1150 422 2328 
Q 422 3509 836 4129 
Q 1250 4750 2034 4750 
z
" transform="scale(0.015625)"/>
       </defs>
       <use xlink:href="#DejaVuSans-14" transform="translate(0 0.665625)"/>
       <use xlink:href="#DejaVuSans-13" transform="translate(63.623047 0.665625)"/>
       <use xlink:href="#DejaVuSans-14" transform="translate(128.203125 41.965625) scale(0.7)"/>
      </g>
     </g>
    </g>
    <g id="ytick_2">
     <g id="line2d_9">
      <path d="M 45.8 48.990225 
L 492.2 48.990225 
" clip-path="url(#p0509bbf4de)" style="fill: none; stroke: #b0b0b0; stroke-opacity: 0.3; stroke-width: 0.8; stroke-linecap: square"/>
     </g>
     <g id="line2d_10">
      <g>
       <use xlink:href="#m93d8a0c014" x="45.8" y="48.990225" style="stroke: #000000; stroke-width: 0.8"/>
      </g>
     </g>
     <g id="text_8">
      <!-- $\mathdefault{10^{2}}$ -->
      <g transform="translate(21.2 53.690225) scale(0.1 -0.1)">
       <use xlink:href="#DejaVuSans-14" transform="translate(0 0.746875)"/>
       <use xlink:href="#DejaVuSans-13" transform="translate(63.623047 0.746875)"/>
       <use xlink:href="#DejaVuSans-15" transform="translate(128.203125 42.046875) scale(0.7)"/>
      </g>
     </g>
    </g>
    <g id="ytick_3">
     <g id="line2d_11">
      <defs>
       <path id="mb5440f2ed9" d="M 0 0 
L -2 0 
" style="stroke: #000000; stroke-width: 0.6"/>
      </defs>
      <g>
       <use xlink:href="#mb5440f2ed9" x="45.8" y="183.358657" style="stroke: #000000; stroke-width: 0.6"/>
      </g>
     </g>
    </g>
    <g id="ytick_4">
     <g id="line2d_12">
      <g>
       <use xlink:href="#mb5440f2ed9" x="45.8" y="172.334915" style="stroke: #000000; stroke-width: 0.6"/>
      </g>
     </g>
    </g>
    <g id="ytick_5">
     <g id="line2d_13">
      <g>
       <use xlink:href="#mb5440f2ed9" x="45.8" y="163.784236" style="stroke: #000000; stroke-width: 0.6"/>
      </g>
     </g>
    </g>
    <g id="ytick_6">
     <g id="line2d_14">
      <g>
       <use xlink:href="#mb5440f2ed9" x="45.8" y="156.797824" style="stroke: #000000; stroke-width: 0.6"/>
      </g>
     </g>
    </g>
    <g id="ytick_7">
     <g id="line2d_15">
      <g>
       <use xlink:href="#mb5440f2ed9" x="45.8" y="150.890896" style="stroke: #000000; stroke-width: 0.6"/>
      </g>
     </g>
    </g>
    <g id="ytick_8">
     <g id="line2d_16">
      <g>
       <use xlink:href="#mb5440f2ed9" x="45.8" y="145.774082" style="stroke: #000000; stroke-width: 0.6"/>
      </g>
     </g>
    </g>
    <g id="ytick_9">
     <g id="line2d_17">
      <g>
       <use xlink:href="#mb5440f2ed9" x="45.8" y="141.260732" style="stroke: #000000; stroke-width: 0.6"/>
      </g>
     </g>
    </g>
    <g id="ytick_10">
     <g id="line2d_18">
      <g>
       <use xlink:href="#mb5440f2ed9" x="45.8" y="110.66257" style="stroke: #000000; stroke-width: 0.6"/>
      </g>
     </g>
    </g>
    <g id="ytick_11">
     <g id="line2d_19">
      <g>
       <use xlink:href="#mb5440f2ed9" x="45.8" y="95.125479" style="stroke: #000000; stroke-width: 0.6"/>
      </g>
     </g>
    </g>
    <g id="ytick_12">
     <g id="line2d_20">
      <g>
       <use xlink:href="#mb5440f2ed9" x="45.8" y="84.101737" style="stroke: #000000; stroke-width: 0.6"/>
      </g>
     </g>
    </g>
    <g id="ytick_13">
     <g id="line2d_21">
      <g>
       <use xlink:href="#mb5440f2ed9" x="45.8" y="75.551058" style="stroke: #000000; stroke-width: 0.6"/>
      </g>
     </g>
    </g>
    <g id="ytick_14">
     <g id="line2d_22">
      <g>
       <use xlink:href="#mb5440f2ed9" x="45.8" y="68.564645" style="stroke: #000000; stroke-width: 0.6"/>
      </g>
     </g>
    </g>
    <g id="ytick_15">
     <g id="line2d_23">
      <g>
       <use xlink:href="#mb5440f2ed9" x="45.8" y="62.657717" style="stroke: #000000; stroke-width: 0.6"/>
      </g>
     </g>
    </g>
    <g id="ytick_16">
     <g id="line2d_24">
      <g>
       <use xlink:href="#mb5440f2ed9" x="45.8" y="57.540904" style="stroke: #000000; stroke-width: 0.6"/>
      </g>
     </g>
    </g>
    <g id="ytick_17">
     <g id="line2d_25">
      <g>
       <use xlink:href="#mb5440f2ed9" x="45.8" y="53.027554" style="stroke: #000000; stroke-width: 0.6"/>
      </g>
     </g>
    </g>
    <g id="ytick_18">
     <g id="line2d_26">
      <g>
       <use xlink:href="#mb5440f2ed9" x="45.8" y="22.429392" style="stroke: #000000; stroke-width: 0.6"/>
      </g>
     </g>
    </g>
    <g id="text_9">
     <!-- CCT (ms) -->
     <g transform="translate(14.797656 118.906344) rotate(-90) scale(0.1 -0.1)">
      <defs>
       <path id="DejaVuSans-26" d="M 4122 4306 
L 4122 3641 
Q 3803 3938 3442 4084 
Q 3081 4231 2675 4231 
Q 1875 4231 1450 3742 
Q 1025 3253 1025 2328 
Q 1025 1406 1450 917 
Q 1875 428 2675 428 
Q 3081 428 3442 575 
Q 3803 722 4122 1019 
L 4122 359 
Q 3791 134 3420 21 
Q 3050 -91 2638 -91 
Q 1578 -91 968 557 
Q 359 1206 359 2328 
Q 359 3453 968 4101 
Q 1578 4750 2638 4750 
Q 3056 4750 3426 4639 
Q 3797 4528 4122 4306 
z
" transform="scale(0.015625)"/>
       <path id="DejaVuSans-37" d="M -19 4666 
L 3928 4666 
L 3928 4134 
L 2272 4134 
L 2272 0 
L 1638 0 
L 1638 4134 
L -19 4134 
L -19 4666 
z
" transform="scale(0.015625)"/>
       <path id="DejaVuSans-3" transform="scale(0.015625)"/>
       <path id="DejaVuSans-b" d="M 1984 4856 
Q 1566 4138 1362 3434 
Q 1159 2731 1159 2009 
Q 1159 1288 1364 580 
Q 1569 -128 1984 -844 
L 1484 -844 
Q 1016 -109 783 600 
Q 550 1309 550 2009 
Q 550 2706 781 3412 
Q 1013 4119 1484 4856 
L 1984 4856 
z
" transform="scale(0.015625)"/>
       <path id="DejaVuSans-50" d="M 3328 2828 
Q 3544 3216 3844 3400 
Q 4144 3584 4550 3584 
Q 5097 3584 5394 3201 
Q 5691 2819 5691 2113 
L 5691 0 
L 5113 0 
L 5113 2094 
Q 5113 2597 4934 2840 
Q 4756 3084 4391 3084 
Q 3944 3084 3684 2787 
Q 3425 2491 3425 1978 
L 3425 0 
L 2847 0 
L 2847 2094 
Q 2847 2600 2669 2842 
Q 2491 3084 2119 3084 
Q 1678 3084 1418 2786 
Q 1159 2488 1159 1978 
L 1159 0 
L 581 0 
L 581 3500 
L 1159 3500 
L 1159 2956 
Q 1356 3278 1631 3431 
Q 1906 3584 2284 3584 
Q 2666 3584 2933 3390 
Q 3200 3197 3328 2828 
z
" transform="scale(0.015625)"/>
       <path id="DejaVuSans-56" d="M 2834 3397 
L 2834 2853 
Q 2591 2978 2328 3040 
Q 2066 3103 1784 3103 
Q 1356 3103 1142 2972 
Q 928 2841 928 2578 
Q 928 2378 1081 2264 
Q 1234 2150 1697 2047 
L 1894 2003 
Q 2506 1872 2764 1633 
Q 3022 1394 3022 966 
Q 3022 478 2636 193 
Q 2250 -91 1575 -91 
Q 1294 -91 989 -36 
Q 684 19 347 128 
L 347 722 
Q 666 556 975 473 
Q 1284 391 1588 391 
Q 1994 391 2212 530 
Q 2431 669 2431 922 
Q 2431 1156 2273 1281 
Q 2116 1406 1581 1522 
L 1381 1569 
Q 847 1681 609 1914 
Q 372 2147 372 2553 
Q 372 3047 722 3315 
Q 1072 3584 1716 3584 
Q 2034 3584 2315 3537 
Q 2597 3491 2834 3397 
z
" transform="scale(0.015625)"/>
       <path id="DejaVuSans-c" d="M 513 4856 
L 1013 4856 
Q 1481 4119 1714 3412 
Q 1947 2706 1947 2009 
Q 1947 1309 1714 600 
Q 1481 -109 1013 -844 
L 513 -844 
Q 928 -128 1133 580 
Q 1338 1288 1338 2009 
Q 1338 2731 1133 3434 
Q 928 4138 513 4856 
z
" transform="scale(0.015625)"/>
      </defs>
      <use xlink:href="#DejaVuSans-26"/>
      <use xlink:href="#DejaVuSans-26" transform="translate(69.828125 0)"/>
      <use xlink:href="#DejaVuSans-37" transform="translate(139.65625 0)"/>
      <use xlink:href="#DejaVuSans-3" transform="translate(200.734375 0)"/>
      <use xlink:href="#DejaVuSans-b" transform="translate(232.515625 0)"/>
      <use xlink:href="#DejaVuSans-50" transform="translate(271.53125 0)"/>
      <use xlink:href="#DejaVuSans-56" transform="translate(368.9375 0)"/>
      <use xlink:href="#DejaVuSans-c" transform="translate(421.03125 0)"/>
     </g>
    </g>
   </g>
   <g id="patch_33">
    <path d="M 45.8 184.608 
L 45.8 7.2 
" style="fill: none; stroke: #000000; stroke-width: 0.8; stroke-linejoin: miter; stroke-linecap: square"/>
   </g>
   <g id="patch_34">
    <path d="M 492.2 184.608 
L 492.2 7.2 
" style="fill: none; stroke: #000000; stroke-width: 0.8; stroke-linejoin: miter; stroke-linecap: square"/>
   </g>
   <g id="patch_35">
    <path d="M 45.8 184.608 
L 492.2 184.608 
" style="fill: none; stroke: #000000; stroke-width: 0.8; stroke-linejoin: miter; stroke-linecap: square"/>
   </g>
   <g id="patch_36">
    <path d="M 45.8 7.2 
L 492.2 7.2 
" style="fill: none; stroke: #000000; stroke-width: 0.8; stroke-linejoin: miter; stroke-linecap: square"/>
   </g>
   <g id="legend_1">
    <g id="patch_37">
     <path d="M 51.4 25.600625 
L 376.4075 25.600625 
Q 378.0075 25.600625 378.0075 24.000625 
L 378.0075 12.8 
Q 378.0075 11.2 376.4075 11.2 
L 51.4 11.2 
Q 49.8 11.2 49.8 12.8 
L 49.8 24.000625 
Q 49.8 25.600625 51.4 25.600625 
z
" style="fill: #ffffff; opacity: 0.8; stroke: #cccccc; stroke-linejoin: miter"/>
    </g>
    <g id="patch_38">
     <path d="M 53 20.47875 
L 69 20.47875 
L 69 14.87875 
L 53 14.87875 
z
" style="fill: #888888"/>
    </g>
    <g id="text_10">
     <!-- DCQCN -->
     <g transform="translate(75.4 20.47875) scale(0.08 -0.08)">
      <defs>
       <path id="DejaVuSans-27" d="M 1259 4147 
L 1259 519 
L 2022 519 
Q 2988 519 3436 956 
Q 3884 1394 3884 2338 
Q 3884 3275 3436 3711 
Q 2988 4147 2022 4147 
L 1259 4147 
z
M 628 4666 
L 1925 4666 
Q 3281 4666 3915 4102 
Q 4550 3538 4550 2338 
Q 4550 1131 3912 565 
Q 3275 0 1925 0 
L 628 0 
L 628 4666 
z
" transform="scale(0.015625)"/>
       <path id="DejaVuSans-34" d="M 2522 4238 
Q 1834 4238 1429 3725 
Q 1025 3213 1025 2328 
Q 1025 1447 1429 934 
Q 1834 422 2522 422 
Q 3209 422 3611 934 
Q 4013 1447 4013 2328 
Q 4013 3213 3611 3725 
Q 3209 4238 2522 4238 
z
M 3406 84 
L 4238 -825 
L 3475 -825 
L 2784 -78 
Q 2681 -84 2626 -87 
Q 2572 -91 2522 -91 
Q 1538 -91 948 567 
Q 359 1225 359 2328 
Q 359 3434 948 4092 
Q 1538 4750 2522 4750 
Q 3503 4750 4090 4092 
Q 4678 3434 4678 2328 
Q 4678 1516 4351 937 
Q 4025 359 3406 84 
z
" transform="scale(0.015625)"/>
       <path id="DejaVuSans-31" d="M 628 4666 
L 1478 4666 
L 3547 763 
L 3547 4666 
L 4159 4666 
L 4159 0 
L 3309 0 
L 1241 3903 
L 1241 0 
L 628 0 
L 628 4666 
z
" transform="scale(0.015625)"/>
      </defs>
      <use xlink:href="#DejaVuSans-27"/>
      <use xlink:href="#DejaVuSans-26" transform="translate(77 0)"/>
      <use xlink:href="#DejaVuSans-34" transform="translate(146.828125 0)"/>
      <use xlink:href="#DejaVuSans-26" transform="translate(225.546875 0)"/>
      <use xlink:href="#DejaVuSans-31" transform="translate(295.375 0)"/>
     </g>
    </g>
    <g id="patch_39">
     <path d="M 121.015 20.47875 
L 137.015 20.47875 
L 137.015 14.87875 
L 121.015 14.87875 
z
" style="fill: #7f9fc4"/>
    </g>
    <g id="text_11">
     <!-- DCTCP -->
     <g transform="translate(143.415 20.47875) scale(0.08 -0.08)">
      <defs>
       <path id="DejaVuSans-33" d="M 1259 4147 
L 1259 2394 
L 2053 2394 
Q 2494 2394 2734 2622 
Q 2975 2850 2975 3272 
Q 2975 3691 2734 3919 
Q 2494 4147 2053 4147 
L 1259 4147 
z
M 628 4666 
L 2053 4666 
Q 2838 4666 3239 4311 
Q 3641 3956 3641 3272 
Q 3641 2581 3239 2228 
Q 2838 1875 2053 1875 
L 1259 1875 
L 1259 0 
L 628 0 
L 628 4666 
z
" transform="scale(0.015625)"/>
      </defs>
      <use xlink:href="#DejaVuSans-27"/>
      <use xlink:href="#DejaVuSans-26" transform="translate(77 0)"/>
      <use xlink:href="#DejaVuSans-37" transform="translate(146.828125 0)"/>
      <use xlink:href="#DejaVuSans-26" transform="translate(202.046875 0)"/>
      <use xlink:href="#DejaVuSans-33" transform="translate(271.875 0)"/>
     </g>
    </g>
    <g id="patch_40">
     <path d="M 185.98875 20.47875 
L 201.98875 20.47875 
L 201.98875 14.87875 
L 185.98875 14.87875 
z
" style="fill: #c4a97f"/>
    </g>
    <g id="text_12">
     <!-- TIMELY -->
     <g transform="translate(208.38875 20.47875) scale(0.08 -0.08)">
      <defs>
       <path id="DejaVuSans-2c" d="M 628 4666 
L 1259 4666 
L 1259 0 
L 628 0 
L 628 4666 
z
" transform="scale(0.015625)"/>
       <path id="DejaVuSans-30" d="M 628 4666 
L 1569 4666 
L 2759 1491 
L 3956 4666 
L 4897 4666 
L 4897 0 
L 4281 0 
L 4281 4097 
L 3078 897 
L 2444 897 
L 1241 4097 
L 1241 0 
L 628 0 
L 628 4666 
z
" transform="scale(0.015625)"/>
       <path id="DejaVuSans-28" d="M 628 4666 
L 3578 4666 
L 3578 4134 
L 1259 4134 
L 1259 2753 
L 3481 2753 
L 3481 2222 
L 1259 2222 
L 1259 531 
L 3634 531 
L 3634 0 
L 628 0 
L 628 4666 
z
" transform="scale(0.015625)"/>
       <path id="DejaVuSans-2f" d="M 628 4666 
L 1259 4666 
L 1259 531 
L 3531 531 
L 3531 0 
L 628 0 
L 628 4666 
z
" transform="scale(0.015625)"/>
       <path id="DejaVuSans-3c" d="M -13 4666 
L 666 4666 
L 1959 2747 
L 3244 4666 
L 3922 4666 
L 2272 2222 
L 2272 0 
L 1638 0 
L 1638 2222 
L -13 4666 
z
" transform="scale(0.015625)"/>
      </defs>
      <use xlink:href="#DejaVuSans-37"/>
      <use xlink:href="#DejaVuSans-2c" transform="translate(61.078125 0)"/>
      <use xlink:href="#DejaVuSans-30" transform="translate(90.578125 0)"/>
      <use xlink:href="#DejaVuSans-28" transform="translate(176.859375 0)"/>
      <use xlink:href="#DejaVuSans-2f" transform="translate(240.046875 0)"/>
      <use xlink:href="#DejaVuSans-3c" transform="translate(282.484375 0)"/>
     </g>
    </g>
    <g id="patch_41">
     <path d="M 251.87375 20.47875 
L 267.87375 20.47875 
L 267.87375 14.87875 
L 251.87375 14.87875 
z
" style="fill: #a97fc4"/>
    </g>
    <g id="text_13">
     <!-- HPCC -->
     <g transform="translate(274.27375 20.47875) scale(0.08 -0.08)">
      <defs>
       <path id="DejaVuSans-2b" d="M 628 4666 
L 1259 4666 
L 1259 2753 
L 3553 2753 
L 3553 4666 
L 4184 4666 
L 4184 0 
L 3553 0 
L 3553 2222 
L 1259 2222 
L 1259 0 
L 628 0 
L 628 4666 
z
" transform="scale(0.015625)"/>
      </defs>
      <use xlink:href="#DejaVuSans-2b"/>
      <use xlink:href="#DejaVuSans-33" transform="translate(75.203125 0)"/>
      <use xlink:href="#DejaVuSans-26" transform="translate(135.5 0)"/>
      <use xlink:href="#DejaVuSans-26" transform="translate(205.328125 0)"/>
     </g>
    </g>
    <g id="patch_42">
     <path d="M 312.28625 20.47875 
L 328.28625 20.47875 
L 328.28625 14.87875 
L 312.28625 14.87875 
z
" style="fill: #c0392b"/>
    </g>
    <g id="text_14">
     <!-- CBAP-SBA -->
     <g transform="translate(334.68625 20.47875) scale(0.08 -0.08)">
      <defs>
       <path id="DejaVuSans-25" d="M 1259 2228 
L 1259 519 
L 2272 519 
Q 2781 519 3026 730 
Q 3272 941 3272 1375 
Q 3272 1813 3026 2020 
Q 2781 2228 2272 2228 
L 1259 2228 
z
M 1259 4147 
L 1259 2741 
L 2194 2741 
Q 2656 2741 2882 2914 
Q 3109 3088 3109 3444 
Q 3109 3797 2882 3972 
Q 2656 4147 2194 4147 
L 1259 4147 
z
M 628 4666 
L 2241 4666 
Q 2963 4666 3353 4366 
Q 3744 4066 3744 3513 
Q 3744 3084 3544 2831 
Q 3344 2578 2956 2516 
Q 3422 2416 3680 2098 
Q 3938 1781 3938 1306 
Q 3938 681 3513 340 
Q 3088 0 2303 0 
L 628 0 
L 628 4666 
z
" transform="scale(0.015625)"/>
       <path id="DejaVuSans-24" d="M 2188 4044 
L 1331 1722 
L 3047 1722 
L 2188 4044 
z
M 1831 4666 
L 2547 4666 
L 4325 0 
L 3669 0 
L 3244 1197 
L 1141 1197 
L 716 0 
L 50 0 
L 1831 4666 
z
" transform="scale(0.015625)"/>
       <path id="DejaVuSans-10" d="M 313 2009 
L 1997 2009 
L 1997 1497 
L 313 1497 
L 313 2009 
z
" transform="scale(0.015625)"/>
      </defs>
      <use xlink:href="#DejaVuSans-26"/>
      <use xlink:href="#DejaVuSans-25" transform="translate(69.828125 0)"/>
      <use xlink:href="#DejaVuSans-24" transform="translate(138.4375 0)"/>
      <use xlink:href="#DejaVuSans-33" transform="translate(206.84375 0)"/>
      <use xlink:href="#DejaVuSans-10" transform="translate(264.9375 0)"/>
      <use xlink:href="#DejaVuSans-36" transform="translate(301.015625 0)"/>
      <use xlink:href="#DejaVuSans-25" transform="translate(364.5 0)"/>
      <use xlink:href="#DejaVuSans-24" transform="translate(433.109375 0)"/>
     </g>
    </g>
   </g>
  </g>
 </g>
 <defs>
  <clipPath id="p0509bbf4de">
   <rect x="45.8" y="7.2" width="446.4" height="177.408"/>
  </clipPath>
 </defs>
</svg>
